<?xml version="1.0" standalone="no"?>
<!DOCTYPE svg PUBLIC "-//W3C//DTD SVG 20010904//EN"
 "http://www.w3.org/TR/2001/REC-SVG-20010904/DTD/svg10.dtd">
<svg version="1.0" xmlns="http://www.w3.org/2000/svg"
 width="277.000000pt" height="198.000000pt" viewBox="0 0 277.000000 198.000000"
 preserveAspectRatio="xMidYMid meet">

<g transform="translate(0.000000,198.000000) scale(0.100000,-0.100000)"
fill="#000000" stroke="none">
<path d="M1345 1960 c-3 -5 -4 -19 0 -30 8 -24 -11 -60 -31 -60 -12 0 -15 -7
-12 -30 4 -26 2 -29 -26 -32 -41 -4 -46 -35 -11 -68 l25 -23 0 26 c0 21 5 27
21 27 22 0 21 -9 -5 -73 l-11 -28 -70 42 c-46 28 -85 44 -115 47 -42 4 -49 1
-71 -25 -19 -23 -30 -28 -44 -22 -90 35 -131 -43 -88 -164 13 -35 14 -50 6
-55 -7 -4 -17 -21 -23 -37 -10 -26 -8 -32 19 -57 l31 -29 0 24 c0 17 -7 26
-21 30 -25 7 -23 44 3 61 14 8 22 6 39 -11 19 -19 20 -25 9 -57 -6 -19 -9 -40
-6 -45 4 -5 2 -11 -4 -13 -6 -2 -6 -16 2 -41 l11 -37 383 0 c239 1 386 5 389
11 10 16 13 99 4 105 -18 11 -9 63 13 78 30 21 60 4 56 -31 -4 -32 -28 -44
-28 -14 0 12 -4 21 -9 21 -5 0 -8 -18 -7 -40 0 -22 3 -40 6 -40 9 0 60 51 60
60 0 5 -9 27 -21 49 -19 38 -19 41 -3 90 19 59 13 110 -16 136 -19 17 -47 17
-92 0 -13 -5 -18 -2 -18 9 0 21 -42 47 -78 48 -19 1 -62 -17 -113 -46 -45 -25
-83 -45 -84 -44 -3 5 -25 85 -25 92 0 3 7 6 15 6 14 0 19 -16 16 -50 -1 -8 12
0 29 18 39 42 36 66 -7 70 -30 3 -32 5 -26 33 5 25 2 29 -16 29 -22 0 -34 27
-29 69 3 25 -15 40 -27 21z m-115 -277 l58 -26 4 -96 c2 -53 8 -104 12 -114 8
-16 3 -18 -50 -15 l-59 3 -39 77 c-26 52 -39 91 -40 120 -1 86 18 95 114 51z
m364 11 c17 -44 5 -104 -35 -183 l-42 -81 -55 0 -54 0 8 28 c5 15 9 65 9 111
l0 84 60 29 c68 32 100 35 109 12z m-584 -51 c1 -52 33 -120 83 -170 l41 -43
-29 0 c-23 1 -37 10 -61 43 -61 81 -88 163 -64 192 20 25 30 17 30 -22z m734
-21 c-8 -46 -44 -119 -79 -161 -19 -22 -35 -31 -57 -31 l-30 0 44 43 c52 51
78 101 78 154 0 47 6 56 32 42 15 -8 17 -17 12 -47z m-656 5 c2 -11 -3 -17
-16 -17 -24 0 -32 8 -25 26 7 20 37 13 41 -9z m580 0 c2 -12 -3 -17 -17 -17
-15 0 -21 6 -21 21 0 25 33 22 38 -4z m-288 -22 c0 -9 -7 -18 -16 -22 -18 -7
-39 11 -30 26 11 17 46 13 46 -4z m10 -110 c0 -19 -16 -35 -36 -35 -19 0 -24
5 -24 24 0 13 6 26 13 29 11 4 47 -9 47 -18z m-275 -140 c0 -16 -8 -21 -39
-23 -43 -4 -62 8 -52 33 4 12 16 15 48 13 35 -2 43 -7 43 -23z m190 0 c0 -16
-8 -21 -39 -23 -43 -4 -62 8 -52 33 4 12 16 15 48 13 35 -2 43 -7 43 -23z
m193 3 c-2 -18 -10 -24 -38 -26 -42 -3 -63 9 -54 31 4 12 18 17 51 17 40 0 44
-2 41 -22z m197 12 c11 -18 -16 -40 -49 -40 -36 0 -57 16 -49 36 6 17 88 19
98 4z"/>
<path d="M930 1440 c0 -5 5 -10 10 -10 6 0 10 5 10 10 0 6 -4 10 -10 10 -5 0
-10 -4 -10 -10z"/>
<path d="M235 1160 c-80 -35 -82 -35 -65 -15 18 22 4 18 -31 -7 -32 -24 -58
-93 -41 -110 6 -6 46 9 105 38 53 27 100 45 104 41 12 -12 -44 -115 -102 -187
-56 -69 -63 -87 -45 -121 17 -32 36 -22 86 44 91 119 212 252 222 242 9 -9
-23 -62 -94 -158 -57 -75 -65 -90 -59 -117 10 -47 25 -47 68 1 66 73 211 219
214 215 2 -1 -17 -33 -41 -70 -25 -36 -48 -82 -52 -102 -7 -39 7 -81 31 -90
21 -8 70 13 122 53 48 37 53 39 53 20 0 -16 31 -47 47 -47 6 0 31 16 56 35
l46 35 -2 -42 c-3 -58 16 -59 86 -7 63 47 82 86 23 50 -63 -39 -85 -22 -42 33
32 43 31 100 -3 104 -50 7 -122 -30 -254 -133 -70 -54 -87 -57 -87 -14 0 39
25 82 107 180 35 43 63 85 63 96 0 22 -18 43 -37 43 -6 0 -63 -44 -124 -97
-106 -91 -111 -94 -85 -53 58 94 67 140 30 154 -22 9 -60 -15 -135 -83 l-67
-61 19 50 c18 46 18 53 4 80 -19 37 -32 37 -120 0z m634 -246 c-28 -31 -98
-84 -111 -84 -15 0 -8 37 10 52 23 21 93 57 111 58 10 0 7 -9 -10 -26z"/>
<path d="M1518 1175 c-62 -21 -127 -64 -198 -132 -137 -129 -171 -272 -75
-318 18 -8 44 -15 57 -15 60 1 216 92 267 156 35 45 24 47 -31 5 -158 -119
-261 -132 -260 -34 1 58 34 117 111 197 84 86 171 133 171 92 0 -20 -70 -101
-86 -100 -24 3 -104 -76 -104 -102 0 -67 143 18 212 125 57 90 23 156 -64 126z"/>
<path d="M1751 1093 c-97 -98 -143 -171 -149 -237 -6 -78 9 -79 82 -7 34 33
65 61 68 61 4 0 -4 -17 -18 -37 -27 -41 -29 -86 -3 -91 9 -1 39 13 67 31 l51
35 11 -29 c27 -63 99 -51 184 32 36 36 73 63 91 66 l30 6 -28 -32 c-30 -36
-35 -82 -12 -101 19 -16 63 1 96 36 l23 25 16 -33 c21 -45 51 -48 105 -9 24
17 45 31 48 31 3 0 8 -11 11 -24 13 -51 89 -45 160 12 25 20 46 43 46 50 0 17
-7 15 -46 -14 -40 -31 -106 -39 -111 -14 -3 10 15 25 51 42 59 29 92 67 82 94
-5 13 -16 15 -52 11 -55 -6 -92 -31 -118 -79 -23 -41 -72 -78 -104 -78 -38 0
-35 25 8 67 45 46 52 73 18 73 -16 0 -45 -23 -88 -70 -36 -38 -74 -70 -83 -70
-27 0 -20 34 13 70 17 18 30 43 30 57 0 25 -2 26 -49 20 -42 -5 -50 -3 -53 11
-3 14 -11 10 -42 -21 -30 -29 -37 -42 -32 -62 5 -19 -1 -29 -29 -51 -42 -32
-107 -39 -113 -12 -2 11 13 23 52 41 58 27 91 64 80 91 -8 20 -64 21 -103 1
-33 -17 -81 -70 -81 -90 0 -7 -15 -23 -34 -34 -63 -39 -74 -22 -25 40 32 41
33 69 2 69 -21 0 -48 -17 -115 -73 -71 -58 -58 -26 23 62 93 99 152 177 144
191 -13 22 -40 8 -104 -57z m240 -140 c-11 -21 -71 -58 -71 -44 0 11 58 61 71
61 6 0 6 -6 0 -17z m567 5 c-6 -17 -69 -60 -77 -52 -7 7 55 64 70 64 6 0 9 -6
7 -12z"/>
<path d="M1993 1068 c-34 -11 -64 -27 -68 -35 -4 -12 0 -14 17 -9 13 4 47 9
76 13 46 5 52 8 52 29 0 29 1 29 -77 2z"/>
<path d="M2382 1048 c-18 -18 -15 -48 6 -48 23 0 42 19 42 42 0 21 -30 24 -48
6z"/>
<path d="M530 640 c-13 -9 -13 -10 0 -10 8 0 22 5 30 10 13 9 13 10 0 10 -8 0
-22 -5 -30 -10z"/>
<path d="M40 545 l0 -75 38 1 c36 1 36 2 7 8 -21 4 -31 13 -33 29 -3 19 1 22
30 23 l33 1 -30 7 c-25 5 -30 11 -30 36 0 27 3 30 28 27 15 -1 27 2 27 8 0 5
-16 10 -35 10 l-35 0 0 -75z"/>
<path d="M213 613 c-25 -10 -14 -53 17 -71 32 -18 40 -49 14 -59 -8 -3 -20 -1
-27 6 -17 17 -31 13 -17 -4 15 -18 51 -20 68 -3 21 21 13 46 -23 68 -36 22
-45 44 -22 53 8 3 20 1 28 -4 22 -14 33 -11 19 6 -12 15 -34 18 -57 8z"/>
<path d="M350 610 c0 -5 7 -7 15 -4 12 5 15 -6 15 -65 0 -41 4 -71 10 -71 6 0
10 30 10 71 0 59 3 70 15 65 8 -3 15 -1 15 4 0 6 -18 10 -40 10 -22 0 -40 -4
-40 -10z"/>
<path d="M510 545 l0 -75 38 2 c36 1 36 1 5 5 -27 4 -33 9 -33 28 0 18 6 25
28 28 l27 4 -28 2 c-26 1 -28 4 -25 34 3 28 6 32 31 29 15 -2 27 1 27 7 0 6
-16 11 -35 11 l-35 0 0 -75z"/>
<path d="M660 610 c0 -5 7 -7 15 -4 12 5 15 -7 17 -67 l2 -74 5 70 c4 43 10
70 18 70 6 0 15 3 19 8 4 4 -11 7 -34 7 -23 0 -42 -4 -42 -10z"/>
<path d="M810 545 c0 -43 4 -75 10 -75 6 0 10 32 10 75 0 43 -4 75 -10 75 -6
0 -10 -32 -10 -75z"/>
<path d="M926 598 c-18 -26 -20 -65 -6 -102 11 -30 50 -36 70 -11 15 18 -1 20
-18 3 -9 -9 -16 -8 -29 5 -22 22 -22 82 0 104 15 16 18 15 37 -2 21 -19 29 -8
8 13 -19 19 -45 14 -62 -10z"/>
<path d="M1084 545 c-12 -41 -18 -75 -14 -75 4 0 10 9 13 20 3 12 14 20 27 20
13 0 24 -8 27 -20 3 -11 10 -20 15 -20 6 0 8 6 5 13 -3 7 -13 41 -22 75 -10
34 -20 62 -24 62 -3 0 -16 -34 -27 -75z m40 3 c5 -24 3 -28 -14 -28 -23 0 -23
0 -10 36 12 31 15 30 24 -8z"/>
<path d="M1290 545 l0 -75 38 1 c36 1 36 2 7 8 -21 4 -31 13 -33 29 -3 19 1
22 30 23 l33 1 -30 7 c-23 5 -30 12 -32 34 -2 24 2 27 28 27 16 0 29 5 29 10
0 6 -16 10 -35 10 l-35 0 0 -75z"/>
<path d="M1501 544 l2 -75 35 3 c42 4 62 29 45 57 -6 10 -9 28 -6 40 7 29 -14
51 -49 51 l-29 0 2 -76z m55 51 c19 -15 19 -15 0 -30 -29 -22 -36 -19 -36 15
0 34 7 37 36 15z m14 -79 c0 -22 -16 -36 -41 -36 -5 0 -9 14 -9 30 0 25 4 30
25 30 20 0 25 -5 25 -24z"/>
<path d="M1680 604 c-8 -8 -13 -35 -13 -59 0 -51 16 -75 49 -75 41 0 60 83 28
128 -18 26 -46 29 -64 6z m51 -10 c17 -21 15 -83 -5 -102 -24 -24 -46 1 -46
52 0 58 24 82 51 50z"/>
<path d="M1842 559 c-2 -73 9 -93 50 -87 22 3 23 8 24 78 1 65 0 67 -3 13 -4
-67 -22 -95 -48 -73 -9 7 -15 35 -18 73 l-3 62 -2 -66z"/>
<path d="M2013 606 c13 -10 17 -28 17 -75 0 -34 4 -61 10 -61 6 0 10 28 10 65
0 51 3 65 15 65 8 0 15 5 15 10 0 6 -19 10 -42 10 -38 -1 -41 -2 -25 -14z"/>
<path d="M2163 545 c0 -44 2 -61 4 -37 2 23 2 59 0 80 -2 20 -4 1 -4 -43z"/>
<path d="M2269 604 c-17 -20 -16 -98 1 -119 7 -8 21 -15 31 -15 11 0 19 -6 20
-12 1 -24 27 57 28 87 2 59 -49 96 -80 59z m59 -28 c8 -16 11 -39 7 -57 -6
-26 -9 -28 -23 -17 -13 11 -15 10 -9 -4 7 -21 -3 -24 -21 -6 -16 16 -16 90 0
106 17 17 31 10 46 -22z"/>
<path d="M2430 564 c0 -67 13 -94 45 -94 32 0 45 27 45 94 0 79 -18 70 -22
-11 -3 -60 -5 -68 -23 -68 -18 0 -20 8 -23 68 -4 81 -22 90 -22 11z"/>
<path d="M2607 613 c-4 -3 -7 -37 -7 -75 l0 -68 43 2 c36 1 38 2 10 5 -27 4
-33 9 -33 28 0 18 6 25 28 28 l27 4 -27 2 c-25 1 -28 5 -28 37 0 29 3 34 18
30 9 -3 24 -1 32 4 11 7 6 10 -21 10 -20 0 -39 -3 -42 -7z"/>
<path d="M1220 344 c0 -8 7 -17 15 -20 13 -5 13 -9 3 -22 -11 -13 -10 -15 6
-9 10 4 25 2 34 -5 13 -11 15 -10 9 5 -4 10 -7 25 -7 33 0 8 -6 11 -15 8 -8
-4 -15 -2 -15 4 0 5 -7 12 -15 16 -9 3 -15 0 -15 -10z"/>
<path d="M1325 339 c-10 -30 0 -33 13 -4 6 14 7 25 2 25 -5 0 -12 -9 -15 -21z"/>
<path d="M1360 353 c1 -5 7 -19 15 -33 10 -18 14 -20 15 -8 0 23 -11 48 -21
48 -5 0 -9 -3 -9 -7z"/>
<path d="M1455 340 c-4 -6 -11 -8 -16 -5 -5 4 -9 -2 -9 -12 0 -11 -6 -25 -12
-32 -11 -11 -9 -11 10 -2 12 7 27 9 34 5 6 -4 9 -1 6 7 -3 8 1 22 10 32 14 15
13 17 -1 17 -9 0 -19 -5 -22 -10z"/>
<path d="M1330 260 c6 -11 13 -20 15 -20 3 0 5 9 5 20 0 11 -7 20 -15 20 -13
0 -14 -4 -5 -20z"/>
<path d="M1360 258 c0 -19 2 -20 10 -8 13 19 13 30 0 30 -5 0 -10 -10 -10 -22z"/>
<path d="M1228 249 c-10 -5 -18 -17 -18 -25 0 -12 -5 -11 -26 5 -15 12 -41 21
-58 21 -36 0 -61 -15 -128 -77 -38 -34 -55 -43 -83 -43 -25 0 -35 4 -32 13 2
6 18 11 36 10 25 -1 31 3 29 15 -4 24 -55 28 -79 6 -40 -36 -17 -74 46 -74 45
0 67 13 137 77 61 56 120 59 129 8 5 -25 35 -27 31 -3 -2 15 1 16 23 8 14 -5
25 -6 25 0 0 5 -9 12 -20 15 -19 6 -28 25 -12 25 5 0 17 7 28 15 14 11 15 14
4 14 -8 0 -23 -4 -32 -10z"/>
<path d="M1454 245 c11 -8 23 -15 28 -15 19 0 6 -19 -19 -27 -15 -5 -22 -12
-17 -16 14 -8 54 20 54 39 0 8 -12 19 -26 24 -35 14 -42 12 -20 -5z"/>
<path d="M1295 240 c3 -5 14 -10 23 -10 15 0 15 2 2 10 -20 13 -33 13 -25 0z"/>
<path d="M1390 240 c-13 -8 -12 -10 3 -10 9 0 17 5 17 10 0 12 -1 12 -20 0z"/>
<path d="M1542 225 c-31 -26 -42 -55 -22 -55 6 0 10 7 10 15 0 23 46 48 76 41
14 -4 47 -27 73 -51 48 -45 104 -75 140 -75 47 0 61 59 18 81 -21 12 -67 -2
-67 -21 0 -6 10 -5 26 2 22 10 28 10 40 -6 17 -24 10 -36 -22 -36 -35 0 -61
15 -121 71 -28 27 -58 49 -65 49 -7 0 -22 3 -34 6 -14 4 -31 -3 -52 -21z"/>
<path d="M1300 205 c-16 -19 0 -19 26 0 16 12 16 14 3 15 -9 0 -22 -7 -29 -15z"/>
<path d="M1384 205 c11 -8 22 -12 25 -9 6 6 -19 24 -34 24 -5 -1 -1 -7 9 -15z"/>
<path d="M1330 181 c-7 -15 -7 -21 0 -21 12 0 25 28 17 36 -3 3 -10 -4 -17
-15z"/>
<path d="M1360 186 c0 -8 5 -18 10 -21 6 -3 10 1 10 9 0 8 -4 18 -10 21 -5 3
-10 -1 -10 -9z"/>
<path d="M1275 150 c-4 -6 -16 -8 -28 -4 -18 5 -20 4 -10 -7 10 -10 9 -15 -5
-25 -9 -7 -14 -16 -10 -20 4 -4 14 -1 22 5 8 7 19 10 24 7 6 -3 12 8 14 24 5
32 3 36 -7 20z"/>
<path d="M1418 148 c7 -7 12 -20 12 -31 0 -10 5 -15 10 -12 6 4 18 1 26 -6 19
-16 29 -5 11 12 -7 8 -12 20 -9 27 2 7 -2 10 -11 6 -8 -3 -18 -1 -22 5 -3 6
-11 11 -18 11 -8 0 -8 -3 1 -12z"/>
<path d="M1369 114 c-11 -30 -3 -46 11 -24 10 16 13 50 5 50 -3 0 -10 -12 -16
-26z"/>
<path d="M1321 120 c-1 -18 16 -46 23 -40 2 3 -2 16 -9 30 -8 15 -14 19 -14
10z"/>
</g>
</svg>
